<?xml version="1.0" encoding="utf-8"?>
<svg xmlns="http://www.w3.org/2000/svg" viewBox="68.0125 69.0825 261.401 265.089" width="261.401px" height="265.089px">
  <g transform="matrix(1, 0, 0, 1, -31.022502899169922, -3.2144899368286133)" id="object-0">
    <g>
      <polygon style="fill: rgb(0, 92, 255); stroke: rgb(255, 255, 255);" points="227.504 72.297 165.444 105.012 226.922 141.296 289.556 102.738"/>
    </g>
    <g>
      <path style="fill: rgb(0, 92, 255); stroke: rgb(255, 255, 255);" d="M 290.234 106.514 L 289.179 178.163 L 228.297 216.891 L 228.578 144.594 L 290.234 106.514 Z"/>
    </g>
    <g>
      <polygon style="fill: rgb(0, 205, 255); stroke: rgb(255, 255, 255);" points="99.702 228.655 99.035 300.139 160.612 337.386 160.612 265.089"/>
    </g>
    <g>
      <path style="fill: rgb(0, 205, 255); stroke: rgb(255, 255, 255);" d="M 225.423 225.238 L 225.423 296.645 L 163.486 337.386 L 163.767 265.089 L 225.423 225.238 Z"/>
    </g>
    <g>
      <polygon style="fill: rgb(0, 163, 255); stroke: rgb(255, 255, 255);" points="290.152 181.845 228.567 221.433 297.047 261.801 359.805 223.528"/>
    </g>
    <g>
      <polygon style="fill: rgb(0, 163, 255); stroke: rgb(255, 255, 255);" points="228.421 225.371 228.301 296.308 295.625 337.386 295.625 265.089"/>
    </g>
    <g>
      <path style="fill: rgb(0, 163, 255); stroke: rgb(255, 255, 255);" d="M 360.436 227.009 L 359.381 298.658 L 298.499 337.386 L 298.78 265.089 L 360.436 227.009 Z"/>
    </g>
    <g>
      <polygon style="fill: rgb(0, 92, 255); stroke: rgb(255, 255, 255);" points="164.513 108.16 163.846 179.644 225.423 216.891 225.423 144.594"/>
    </g>
    <g>
      <polygon style="fill: rgb(0, 205, 255); stroke: rgb(255, 255, 255);" points="162.254 183.214 100.188 225.918 162.136 262.659 225.423 221.692"/>
    </g>
  </g>
</svg>